<svg xmlns="http://www.w3.org/2000/svg" width="63" height="63" fill="none" viewBox="0 0 63 63">
  <path fill="#5B92C5" fill-opacity="0.25" d="M31.5.016c17.393 0 31.484 14.091 31.484 31.484S48.893 62.984 31.5 62.984.016 48.893.016 31.5 14.107.016 31.5.016zm-3.669 18.23l9.585 9.192H14.234a3.04 3.04 0 00-3.046 3.046v2.032a3.04 3.04 0 003.046 3.047h23.182l-9.585 9.19a3.05 3.05 0 00-.05 4.355l1.396 1.384a3.034 3.034 0 004.303 0l16.847-16.834a3.034 3.034 0 000-4.303l-16.846-16.86a3.034 3.034 0 00-4.304 0L27.78 13.88a3.065 3.065 0 00.051 4.367z"/>
</svg>
