<svg width="112" height="89" viewBox="0 0 112 89" fill="none" xmlns="http://www.w3.org/2000/svg">
<path d="M94.5905 2.8375C96.5259 0.99739 99.1014 -0.0198969 101.774 0.000294933C104.446 0.0204867 107.006 1.07658 108.913 2.94573C110.82 4.81487 111.926 7.35087 111.996 10.0186C112.067 12.6863 111.097 15.2771 109.291 17.2443L54.472 85.7111C53.5293 86.725 52.3916 87.5387 51.1269 88.1035C49.8622 88.6683 48.4964 88.9726 47.1112 88.9982C45.726 89.0239 44.3499 88.7702 43.0651 88.2526C41.7803 87.7349 40.6132 86.9639 39.6336 85.9855L3.27966 49.6803C2.26727 48.7382 1.45525 47.6021 0.892052 46.3398C0.328855 45.0775 0.0260153 43.7148 0.00160364 42.3331C-0.022808 40.9514 0.231709 39.5789 0.749966 38.2975C1.26822 37.0162 2.03961 35.8522 3.01809 34.875C3.99658 33.8978 5.16213 33.1275 6.44521 32.6099C7.72829 32.0924 9.10262 31.8382 10.4862 31.8626C11.8698 31.8869 13.2343 32.1894 14.4983 32.7518C15.7623 33.3143 16.8999 34.1252 17.8432 35.1362L46.6131 63.8538L94.3294 3.13936C94.4153 3.03372 94.5071 2.93294 94.6042 2.8375H94.5905Z" fill="#3177B7"/>
</svg>
