<svg width="156" height="156" viewBox="0 0 156 156" fill="none" xmlns="http://www.w3.org/2000/svg">
<path d="M153.978 80.5271L83.7859 2.47049C80.83 -0.823497 75.1523 -0.823497 72.1964 2.47049L2.00425 80.5271C0.993922 81.6479 0.330749 83.0384 0.0953681 84.5295C-0.140013 86.0206 0.0625392 87.548 0.678397 88.926C1.92626 91.7438 4.71835 93.5547 7.799 93.5547H23.3973V148.194C23.3973 150.265 24.219 152.25 25.6816 153.714C27.1442 155.178 29.1279 156 31.1964 156H54.5938C56.6622 156 58.646 155.178 60.1086 153.714C61.5712 152.25 62.3929 150.265 62.3929 148.194V116.972H93.5894V148.194C93.5894 150.265 94.4111 152.25 95.8737 153.714C97.3363 155.178 99.3201 156 101.389 156H124.786C126.854 156 128.838 155.178 130.301 153.714C131.763 152.25 132.585 150.265 132.585 148.194V93.5547H148.183C149.694 93.5612 151.173 93.1276 152.442 92.307C153.71 91.4863 154.713 90.314 155.327 88.9329C155.942 87.5519 156.141 86.0218 155.901 84.5292C155.662 83.0367 154.994 81.6461 153.978 80.5271V80.5271Z" fill="#ACACAC"/>
</svg>
