<svg width="192" height="192" viewBox="0 0 192 192" fill="none" xmlns="http://www.w3.org/2000/svg">
<path d="M78.2607 2.44551e-07C64.6891 -0.00107291 51.3532 3.52985 39.5762 10.2424C27.7991 16.955 17.9904 26.6158 11.1232 38.2663C4.25602 49.9169 0.569134 63.152 0.428383 76.6586C0.287631 90.1652 3.6979 103.474 10.3208 115.263L0.789597 140.075C-0.00272722 142.138 -0.203712 144.379 0.209069 146.548C0.621849 148.718 1.63216 150.731 3.12729 152.362C4.62242 153.993 6.54356 155.179 8.6764 155.787C10.8092 156.396 13.0699 156.402 15.2062 155.806L44.9852 147.5C55.5336 152.46 67.0676 154.997 78.7339 154.922C90.4003 154.848 101.901 152.164 112.384 147.069C122.868 141.975 132.067 134.6 139.3 125.489C146.533 116.379 151.616 105.767 154.173 94.4378C156.73 83.1087 156.695 71.3524 154.071 60.0385C151.447 48.7247 146.3 38.1427 139.013 29.0753C131.725 20.0079 122.483 12.6871 111.969 7.65435C101.455 2.62158 89.9392 0.00563822 78.2726 2.44551e-07H78.2607ZM54.744 163.743C62.0432 172.202 71.0952 178.989 81.2786 183.638C91.4621 188.287 102.536 190.688 113.739 190.676C125.629 190.676 136.921 188.018 147.027 183.251L176.794 191.558C178.93 192.154 181.191 192.147 183.324 191.539C185.456 190.931 187.378 189.745 188.873 188.114C190.368 186.482 191.378 184.47 191.791 182.3C192.204 180.13 192.003 177.889 191.21 175.827L181.691 151.015C188.173 139.461 191.57 126.446 191.558 113.214C191.558 90.0943 181.38 69.3345 165.227 55.141C166.997 62.0049 167.941 69.0536 168.041 76.1392C175.321 86.6859 179.584 99.4612 179.584 113.214C179.584 125.727 176.063 137.418 169.945 147.368L168.412 149.871L180.027 180.081L145.781 170.548L143.686 171.596C134.706 176.172 124.528 178.758 113.727 178.758C100.148 178.779 86.8976 174.603 75.806 166.805C68.6841 166.62 61.6097 165.592 54.732 163.743H54.744Z" fill="#3177B7"/>
</svg>
