<svg width="107" height="107" viewBox="0 0 107 107" fill="none" xmlns="http://www.w3.org/2000/svg">
<path d="M104.34 36.9408C108.06 48.3739 107.822 60.7273 103.663 72.0084C99.5052 83.2895 91.6694 92.8406 81.4198 99.1211C71.1702 105.402 59.1044 108.045 47.1688 106.626C35.2331 105.206 24.1234 99.8063 15.6317 91.2969C7.1399 82.7875 1.76119 71.6648 0.363109 59.7229C-1.03498 47.7809 1.62908 35.716 7.92557 25.4742C14.2221 15.2324 23.7839 7.41081 35.0687 3.27107C46.3535 -0.868677 58.7034 -1.08522 70.1263 2.65637L63.1192 9.65905C62.7314 10.0403 62.3837 10.4617 62.0627 10.8964C52.9166 9.04976 43.4192 10.1966 34.9751 14.1673C26.5309 18.138 19.5885 24.7218 15.1745 32.9449C10.7605 41.1679 9.10927 50.5937 10.4651 59.8282C11.8209 69.0627 16.1117 77.6156 22.7029 84.2218C29.2941 90.8281 37.8358 95.1371 47.0647 96.5114C56.2935 97.8858 65.7195 96.2525 73.9487 91.8533C82.1778 87.454 88.7731 80.5223 92.7591 72.0833C96.7451 63.6443 97.9102 54.1462 96.0821 44.9935C96.5396 44.6689 96.969 44.3064 97.3659 43.91L104.333 36.9408H104.34ZM86.2534 46.8462C87.6889 53.89 86.8171 61.2091 83.7672 67.7183C80.7173 74.2276 75.6518 79.5804 69.3216 82.9834C62.9913 86.3864 55.7334 87.6583 48.6237 86.6106C41.514 85.5628 34.931 82.2512 29.8508 77.1667C24.7705 72.0822 21.4633 65.4955 20.4196 58.383C19.3758 51.2705 20.651 44.0109 24.0562 37.6804C27.4613 31.3499 32.8151 26.2855 39.3238 23.238C45.8325 20.1905 53.1497 19.3222 60.1906 20.7617V31.1018C55.2004 29.6117 49.8559 29.8292 45.0032 31.7199C40.1505 33.6106 36.0669 37.0665 33.3989 41.5404C30.731 46.0143 29.6312 51.2507 30.2735 56.4204C30.9159 61.59 33.2638 66.3977 36.9455 70.0821C40.6272 73.7665 45.4323 76.1172 50.6001 76.762C55.7678 77.4068 61.003 76.3088 65.4766 73.6419C69.9502 70.975 73.4068 66.8916 75.2989 62.0382C77.1911 57.1847 77.4108 51.8386 75.9232 46.8462H86.2534ZM53.491 63.567C55.0291 63.5678 56.5468 63.2147 57.9267 62.5351C59.3066 61.8554 60.5117 60.8674 61.4489 59.6474C62.386 58.4274 63.0301 57.0081 63.3314 55.4993C63.6326 53.9905 63.5828 52.4326 63.186 50.9461L73.7636 40.3585L73.9642 40.1578H90.2785C90.7178 40.1586 91.153 40.0728 91.5591 39.9052C91.9653 39.7377 92.3344 39.4917 92.6454 39.1813L106.018 25.8047C106.487 25.337 106.806 24.7406 106.935 24.0911C107.065 23.4416 106.999 22.7682 106.745 22.1564C106.492 21.5446 106.062 21.0219 105.511 20.6545C104.961 20.2872 104.313 20.0917 103.651 20.0929H86.9354V3.37202C86.9353 2.71112 86.7394 2.06507 86.3724 1.51546C86.0055 0.965849 85.484 0.537322 84.8738 0.283991C84.2635 0.03066 83.5919 -0.0361163 82.9438 0.0920943C82.2956 0.220305 81.7 0.537753 81.2321 1.00435L67.8597 14.381C67.5482 14.6916 67.3011 15.0606 67.1324 15.4669C66.9638 15.8732 66.8769 16.3088 66.8768 16.7487V33.0682C66.8081 33.1332 66.7412 33.2001 66.6762 33.2689L56.0986 43.8364C54.6114 43.4372 53.0523 43.3857 51.5419 43.6859C50.0316 43.9861 48.6106 44.6299 47.3888 45.5675C46.1671 46.5051 45.1775 47.7113 44.4965 49.0929C43.8155 50.4744 43.4614 51.9942 43.4617 53.5345C43.4617 56.1953 44.5184 58.7471 46.3992 60.6286C48.2801 62.51 50.8311 63.567 53.491 63.567Z" fill="#5C95FF"/>
</svg>
