<svg width="107" height="94" viewBox="0 0 107 94" fill="none" xmlns="http://www.w3.org/2000/svg">
<path d="M53.5 0L0 25.3077L14.2667 31.8154V44.1077C9.98667 45.5538 7.13333 49.8923 7.13333 54.2308C7.13333 58.5692 9.98667 62.9077 14.2667 64.3538V65.0769L7.84667 80.2615C5.70667 86.7692 7.13333 94 17.8333 94C28.5333 94 29.96 86.7692 27.82 80.2615L21.4 65.0769C25.68 62.9077 28.5333 59.2923 28.5333 54.2308C28.5333 49.1692 25.68 45.5538 21.4 44.1077V35.4308L53.5 50.6154L107 25.3077L53.5 0ZM84.8867 47L52.7867 61.4615L35.6667 53.5077V54.2308C35.6667 59.2923 33.5267 63.6308 29.96 67.2462L34.24 77.3692V78.0923C34.9533 80.9846 35.6667 83.8769 34.9533 86.7692C39.9467 88.9385 45.6533 90.3846 52.7867 90.3846C76.3267 90.3846 84.8867 75.9231 84.8867 68.6923V47V47Z" fill="#EF8C64"/>
</svg>
